<svg xmlns="http://www.w3.org/2000/svg" viewBox="0 0 647.387 750.973"><path d="M4412.97 5632.34H440.777C118.82 5632.34 0 5513.52 0 5191.41V1304.65c0-36.46 1.473-70.3 4.688-101.68 7.335-70.3 8.707-138.44 74.101-216.021 6.387-7.59 73.145-57.269 73.145-57.269 35.914-17.61 60.437-30.578 100.933-46.891L2208.83 63.32c101.54-46.55 144-64.699 217.75-63.23V.078h.58V.09c73.75-1.469 116.21 16.68 217.76 63.23L4600.87 882.79c40.51 16.313 65.02 29.281 100.94 46.891 0 0 66.77 49.679 73.14 57.269 65.39 77.581 66.76 145.721 74.1 216.021 3.22 31.38 4.69 65.22 4.69 101.68v3886.76c0 322.11-118.83 440.93-440.77 440.93" style="fill:#2e2d2d;fill-opacity:1;fill-rule:evenodd;stroke:none" transform="matrix(.13333 0 0 -.13333 0 750.973)"/><path d="M1046.22 3674.56h386.83v299.22h-386.83v610.85h402.24v299.23H717.73V2724.35h736.84v299.22h-408.35v650.99M3816.97 3609.74v-487.45c0-86.38-39.92-126.46-122.77-126.46h-61.43c-85.96 0-125.89 40.08-125.89 126.46v1363.62c0 86.39 39.93 126.46 125.89 126.46h55.26c82.9 0 122.83-40.07 122.83-126.46v-422.69h322.33v441.2c0 268.38-128.95 397.96-396 397.96h-159.7c-267.06 0-399.11-132.64-399.11-401.07V3106.89c0-268.43 132.05-401.06 399.11-401.06h162.75c267.12 0 399.11 132.63 399.11 401.06v502.85h-322.38M2676.22 2724.35h328.55v2159.51h-328.55V2724.35M2199.53 3924.42c0-86.39-39.87-126.52-122.77-126.52h-135.11v795.97h135.11c82.9 0 122.77-40.1 122.77-126.47zm-70.61 959.44h-515.77V2724.35h328.5v783.61h187.27c267.12 0 399.11 132.63 399.11 401.01v573.83c0 268.43-131.99 401.06-399.11 401.06" style="fill:#fff;fill-opacity:1;fill-rule:nonzero;stroke:none" transform="matrix(.13333 0 0 -.13333 0 750.973)"/><path d="M1492.7 771.711h1880.54L2413.39 455.18 1492.7 771.711" style="fill:#fff;fill-opacity:1;fill-rule:evenodd;stroke:none" transform="matrix(.13333 0 0 -.13333 0 750.973)"/><path d="M4710.24 173.031c17.67 0 30.71 9.301 30.71 26.989 0 17.679-13.04 26.05-30.71 26.05h-45.61v-53.039zm-73.53 80.028h73.53c36.29 0 57.69-18.61 57.69-50.258 0-27.91-15.82-45.59-39.08-51.18l39.08-52.11V88.34h-26.05l-43.74 59.562h-33.51V88.34h-27.92zm189.85-82.829c0 75.391-55.84 133.09-126.57 133.09-70.72 0-126.56-57.699-126.56-133.09 0-75.378 55.84-133.07 126.56-133.07 70.73 0 126.57 57.692 126.57 133.07zm-281.98 0c0 91.211 68.87 160.071 155.41 160.071 86.55 0 155.42-68.86 155.42-160.071 0-91.199-68.87-160.058-155.42-160.058-86.54 0-155.41 68.86-155.41 160.058" style="fill:#2e2d2d;fill-opacity:1;fill-rule:nonzero;stroke:none" transform="matrix(.13333 0 0 -.13333 0 750.973)"/><path d="M1056.98 1531.74c-50.94 0-98 8.42-141.164 25.24-43.183 16.84-80.593 40.22-112.273 70.14-31.68 29.92-56.535 65.6-74.543 107.06-18.027 41.45-27.02 86.8-27.02 136.05v1.87c0 48 8.848 92.57 26.551 133.71 17.707 41.14 42.082 77.15 73.145 108 31.054 30.86 68.164 55.01 111.347 72.47 43.165 17.44 89.917 26.18 140.237 26.18 57.76 0 107.62-8.42 149.55-25.24 41.92-16.84 80.27-40.22 115.07-70.14l-106.22-128.1c-23.62 19.95-47.69 35.21-72.22 45.82-24.54 10.59-52.96 15.89-85.25 15.89-23.62 0-45.51-4.67-65.698-14.02-20.183-9.36-37.734-22.14-52.637-38.34-14.91-16.21-26.718-35.22-35.41-57.03-8.711-21.84-13.047-45.21-13.047-70.14v-1.86c0-26.18 4.336-50.5 13.047-72.94 8.692-22.44 20.969-41.6 36.809-57.5 15.84-15.9 34.473-28.38 55.898-37.4 21.438-9.05 45.198-13.57 71.288-13.57 42.24 0 77.01 9.03 104.36 27.12v79.48h-128.59v132.78h300.03v-294.54c-34.79-28.69-75.79-52.69-123-72.01-47.2-19.3-100.62-28.98-160.26-28.98M1833.77 1803.54l-72.68 186.07-73.61-186.07zm-158.4 401.14h174.24l277.66-659.22h-193.81l-47.52 116.88h-251.57l-46.59-116.88h-190.09l277.68 659.22M2190.97 2199.94h191l155.62-253.4 155.6 253.4h191.01v-654.53h-179.82v375.89l-166.79-256.2h-3.73L2368 1919.43v-374.02h-177.03v654.53M3005.01 2199.94h524.59v-154.28h-345.69v-99.12h313.07v-143.05h-313.07v-103.8h350.35v-154.28h-529.25v654.53M3888.08 1533.61c-58.39 0-113.83 9.05-166.32 27.11-52.5 18.08-98.93 45.2-139.3 81.36l100.63 120.62c65.22-52.37 135.72-78.55 211.51-78.55 24.23 0 42.71 3.89 55.44 11.69 12.73 7.79 19.1 18.85 19.1 33.19v1.88c0 6.85-1.55 12.93-4.66 18.23-3.11 5.29-8.84 10.43-17.23 15.43-8.39 4.98-19.57 9.82-33.55 14.49-13.97 4.68-32.14 9.5-54.5 14.5-34.8 8.09-67.09 16.98-96.9 26.65-29.83 9.65-55.77 22.11-77.81 37.4-22.06 15.26-39.46 34.28-52.18 57.04-12.74 22.74-19.11 50.96-19.11 84.62v1.86c0 30.54 5.75 58.6 17.25 84.16 11.49 25.56 28.25 47.69 50.31 66.39 22.04 18.7 48.6 33.19 79.67 43.48 31.06 10.29 66.15 15.43 105.28 15.43 55.91 0 105.77-7.34 149.56-21.98 43.79-14.64 83.39-36.31 118.8-64.98l-90.39-128.1c-29.81 21.18-60.41 37.24-91.77 48.15-31.38 10.9-61.65 16.37-90.85 16.37-21.75 0-38.06-4.06-48.92-12.16-10.87-8.1-16.31-18.08-16.31-29.92v-1.88c0-7.48 1.71-14.02 5.13-19.62 3.41-5.62 9.31-10.76 17.7-15.43 8.39-4.68 19.88-9.36 34.48-14.03 14.59-4.68 33.08-9.51 55.45-14.49 37.26-8.12 70.95-17.63 101.09-28.53 30.12-10.9 55.74-24.16 76.87-39.73 21.11-15.6 37.27-34.45 48.45-56.57 11.18-22.14 16.77-48.48 16.77-79.02v-1.86c0-33.66-6.38-63.59-19.1-89.77-12.74-26.18-30.6-48.48-53.58-66.85-22.98-18.4-50.63-32.43-82.93-42.08-32.3-9.66-68.34-14.5-108.08-14.5" style="fill:#fff;fill-opacity:1;fill-rule:nonzero;stroke:none" transform="matrix(.13333 0 0 -.13333 0 750.973)"/></svg>
