<svg xmlns="http://www.w3.org/2000/svg" fill="none" viewBox="0 0 74 74"><g clip-path="url(#a)"><path fill="#C5C3C0" fill-rule="evenodd" d="M43.007 23.411a6.918 6.918 0 0 0-1.17 3.85l-.04-.015a6.91 6.91 0 0 0 2.038 4.924 6.9 6.9 0 0 0 4.933 2.022 6.939 6.939 0 0 0 6.404-4.28 6.941 6.941 0 0 0-1.502-7.553 6.948 6.948 0 0 0-7.554-1.503 6.928 6.928 0 0 0-3.11 2.555ZM56.43 22.13a9.23 9.23 0 0 1-7.67 14.352 9.212 9.212 0 0 1-8.536-5.692 9.239 9.239 0 0 1 2.001-10.063 9.23 9.23 0 0 1 14.205 1.403ZM23.02 55.727l-4.518-1.87a7.798 7.798 0 1 0 4.276-10.665l4.658 1.925a5.739 5.739 0 0 1 3.094 7.513 5.751 5.751 0 0 1-7.51 3.097ZM36.6 0A36.732 36.732 0 0 0 0 33.777l19.681 8.144a10.316 10.316 0 0 1 5.853-1.81h.58l8.751-12.682v-.183a13.832 13.832 0 0 1 8.586-12.766 13.857 13.857 0 0 1 12.961 24.339 13.842 13.842 0 0 1-7.693 2.329h-.315l-12.453 8.909v.488a10.384 10.384 0 0 1-9.361 10.368 10.399 10.399 0 0 1-11.226-8.316l-14.07-5.812a36.729 36.729 0 0 0 48.577 24.242A36.721 36.721 0 0 0 36.625.051L36.599 0Z" clip-rule="evenodd"/></g><defs><clipPath id="a"><path fill="#fff" d="M0 0h74v74H0z"/></clipPath></defs></svg>
